<svg width="28" height="27" viewBox="0 0 28 27" fill="none" xmlns="http://www.w3.org/2000/svg">
<path d="M26.056 23.2084C26.9329 22.0749 27.5347 20.766 27.8169 19.3783C28.0991 17.9905 28.0546 16.5594 27.6866 15.1904C27.3186 13.8215 26.6366 12.5497 25.6908 11.469C24.745 10.3882 23.5597 9.52603 22.2222 8.94608C21.9309 7.32973 21.2613 5.79868 20.2644 4.46927C19.2675 3.13985 17.9695 2.04704 16.4691 1.27389C14.9686 0.500726 13.3051 0.0675552 11.605 0.00728695C9.90487 -0.0529813 8.21289 0.261238 6.65759 0.926071C5.10228 1.5909 3.72458 2.58886 2.62917 3.8441C1.53376 5.09935 0.749454 6.57886 0.335849 8.17022C-0.0777558 9.76158 -0.109778 11.4229 0.242217 13.028C0.594212 14.6331 1.32096 16.1397 2.36725 17.4333L0.422329 19.2954C0.228177 19.4851 0.0966551 19.7261 0.0443605 19.9878C-0.00793414 20.2496 0.0213413 20.5204 0.128493 20.7661C0.233462 21.0125 0.41172 21.2235 0.640801 21.3724C0.869882 21.5212 1.13953 21.6014 1.41578 21.6027H9.37734C10.1702 23.2146 11.4203 24.577 12.9828 25.5322C14.5453 26.4874 16.3564 26.9963 18.2064 27H26.6017C26.878 26.9987 27.1476 26.9185 27.3767 26.7696C27.6058 26.6208 27.7841 26.4098 27.889 26.1634C27.9962 25.9177 28.0255 25.6469 27.9732 25.3851C27.9209 25.1234 27.7893 24.8824 27.5952 24.6927L26.056 23.2084ZM8.41188 17.5548C8.4138 18.0066 8.45122 18.4577 8.52382 18.9041H4.7879L5.27762 18.4453C5.40877 18.3199 5.51287 18.1706 5.5839 18.0062C5.65494 17.8418 5.69151 17.6654 5.69151 17.4873C5.69151 17.3092 5.65494 17.1328 5.5839 16.9684C5.51287 16.8039 5.40877 16.6547 5.27762 16.5293C4.49344 15.7814 3.87176 14.8902 3.44892 13.9078C3.02608 12.9255 2.81057 11.8717 2.815 10.8081C2.815 8.66097 3.6995 6.60174 5.27393 5.08346C6.84836 3.56518 8.98374 2.71222 11.2103 2.71222C12.9477 2.70215 14.6447 3.21739 16.0627 4.1855C17.4807 5.1536 18.5485 6.52591 19.1159 8.1095C18.8081 8.1095 18.5142 8.1095 18.2064 8.1095C15.6087 8.1095 13.1175 9.10463 11.2806 10.876C9.4438 12.6473 8.41188 15.0497 8.41188 17.5548ZM23.1597 24.3014L23.2296 24.3688H18.2064C16.588 24.366 15.0206 23.8222 13.7713 22.8301C12.522 21.8379 11.6681 20.4587 11.355 18.9275C11.0419 17.3963 11.289 15.8077 12.0542 14.4324C12.8193 13.0572 14.0553 11.9803 15.5515 11.3853C17.0477 10.7902 18.7115 10.7138 20.2595 11.169C21.8076 11.6242 23.1441 12.5829 24.0414 13.8818C24.9386 15.1807 25.3412 16.7394 25.1804 18.2924C25.0196 19.8454 24.3055 21.2966 23.1597 22.3988C22.896 22.6479 22.7452 22.9874 22.7399 23.3433C22.7407 23.5219 22.7782 23.6985 22.8502 23.8629C22.9223 24.0274 23.0275 24.1764 23.1597 24.3014Z" fill="#A4A4A4"/>
</svg>
