<svg width="22" height="18" viewBox="0 0 22 18" fill="none" xmlns="http://www.w3.org/2000/svg">
<path d="M19.37 17.67C19.1452 17.6709 18.9267 17.5961 18.7497 17.4575C18.5727 17.319 18.4475 17.1249 18.3943 16.9065C18.3412 16.6881 18.3631 16.4581 18.4567 16.2538C18.5503 16.0494 18.7099 15.8825 18.91 15.78C19.238 15.6124 19.5133 15.3575 19.7056 15.0435C19.8979 14.7294 19.9998 14.3683 20 14V4C19.9998 3.63171 19.8979 3.27062 19.7056 2.95653C19.5133 2.64245 19.238 2.38757 18.91 2.22C18.674 2.098 18.496 1.88723 18.4154 1.63406C18.3348 1.38088 18.358 1.10604 18.48 0.87C18.602 0.633957 18.8128 0.456046 19.0659 0.375406C19.3191 0.294765 19.594 0.318 19.83 0.44C20.4841 0.776513 21.0327 1.28686 21.4155 1.91492C21.7983 2.54299 22.0006 3.26445 22 4V14C22.0006 14.7355 21.7983 15.457 21.4155 16.0851C21.0327 16.7131 20.4841 17.2235 19.83 17.56C19.6868 17.6305 19.5296 17.6681 19.37 17.67ZM14 0H4C2.93913 0 1.92172 0.421427 1.17157 1.17157C0.421427 1.92172 0 2.93913 0 4V14C0 15.0609 0.421427 16.0783 1.17157 16.8284C1.92172 17.5786 2.93913 18 4 18H14C15.0609 18 16.0783 17.5786 16.8284 16.8284C17.5786 16.0783 18 15.0609 18 14V4C18 2.93913 17.5786 1.92172 16.8284 1.17157C16.0783 0.421427 15.0609 0 14 0ZM14 16H4C3.46957 16 2.96086 15.7893 2.58579 15.4142C2.21071 15.0391 2 14.5304 2 14V12.6L3.74 10.51C3.90013 10.3188 4.09826 10.1629 4.32181 10.0523C4.54536 9.94169 4.78946 9.87875 5.03862 9.86747C5.28778 9.85618 5.53657 9.89681 5.76921 9.98676C6.00184 10.0767 6.21324 10.214 6.39 10.39L7 11C7.15505 11.1563 7.34086 11.2786 7.54566 11.3593C7.75046 11.4401 7.96979 11.4774 8.18976 11.4689C8.40973 11.4604 8.62555 11.4064 8.82355 11.3102C9.02155 11.214 9.19741 11.0777 9.34 10.91L11.75 8.1C11.9114 7.91483 12.1089 7.76465 12.3305 7.65869C12.552 7.55273 12.793 7.49323 13.0384 7.48386C13.2838 7.4745 13.5286 7.51545 13.7576 7.60422C13.9866 7.69298 14.195 7.82767 14.37 8L16 9.6V14C16 14.5304 15.7893 15.0391 15.4142 15.4142C15.0391 15.7893 14.5304 16 14 16ZM6.5 4C6.79667 4 7.08668 4.08797 7.33335 4.2528C7.58003 4.41762 7.77229 4.65189 7.88582 4.92597C7.99935 5.20006 8.02906 5.50166 7.97118 5.79264C7.9133 6.08361 7.77044 6.35088 7.56066 6.56066C7.35088 6.77044 7.08361 6.9133 6.79264 6.97118C6.50166 7.02906 6.20006 6.99935 5.92597 6.88582C5.65189 6.77229 5.41762 6.58003 5.2528 6.33335C5.08797 6.08668 5 5.79667 5 5.5C5 5.10218 5.15804 4.72064 5.43934 4.43934C5.72064 4.15804 6.10218 4 6.5 4Z" fill="black"/>
</svg>
