<svg width="26" height="25" viewBox="0 0 26 25" fill="none" xmlns="http://www.w3.org/2000/svg">
<g clip-path="url(#clip0_2_107)">
<path d="M25.2705 10.4883C25.207 10.4053 25.1435 10.3271 25.0752 10.249C24.7187 9.83887 24.3086 9.37988 23.8252 8.8623C23 7.97363 21.9746 6.90918 20.7197 5.63965C18.7275 3.63281 17.2432 2.21191 16.1348 1.23535C15.2119 0.419922 14.1133 0 13.0146 0H12.9805C11.8818 0 10.7832 0.419922 9.86034 1.23535C8.75194 2.2168 7.26269 3.63281 5.27538 5.63965C4.01562 6.90918 2.99511 7.97363 2.16991 8.8623C1.6914 9.37988 1.27636 9.83887 0.919914 10.249C0.851555 10.3271 0.788078 10.4102 0.724601 10.4883C0.0947188 11.3037 0.700187 12.4316 1.74023 12.4365H2.10644C2.10155 12.8857 2.09667 13.3594 2.10155 13.8623C2.10644 14.2725 2.11132 14.6631 2.12597 15.0439C2.18945 17.1387 2.34081 18.7402 2.51171 19.9609C2.85839 22.3486 4.87499 24.4092 7.20409 24.7461C7.55077 24.7949 7.92675 24.8389 8.33691 24.8828C8.70312 24.9219 9.09862 24.9561 9.52343 24.9854C9.49413 24.3945 9.4746 23.8135 9.46484 23.335C9.43066 22.002 9.42577 19.3848 9.50878 18.5254C9.6162 17.3193 10.5635 16.3623 11.7695 16.2451H11.7891C12.2285 16.2012 12.668 16.1865 13.1123 16.2061C13.1123 16.2061 13.5029 16.1719 14.2109 16.2451H14.2305C14.8115 16.3037 15.3584 16.5625 15.7734 16.9775C16.1885 17.3926 16.4424 17.9443 16.4912 18.5254C16.5693 19.3848 16.5693 22.002 16.5351 23.335C16.5254 23.8135 16.501 24.3945 16.4766 24.9854C16.8916 24.9561 17.2822 24.9219 17.6435 24.8828C18.0635 24.8389 18.4492 24.79 18.8008 24.7412C21.1299 24.4043 23.1465 22.3438 23.4932 19.9561C23.6641 18.7354 23.8203 17.1338 23.8789 15.0391C23.8887 14.6631 23.8984 14.2676 23.9033 13.8574C23.9082 13.3594 23.9082 12.8857 23.8984 12.4316H24.2646C25.2998 12.4316 25.9053 11.3037 25.2705 10.4883Z" fill="#A4A4A4"/>
</g>
<defs>
<clipPath id="clip0_2_107">
<rect width="25" height="25" fill="white" transform="translate(0.5)"/>
</clipPath>
</defs>
</svg>
