<svg width="34" height="35" viewBox="0 0 34 35" fill="none" xmlns="http://www.w3.org/2000/svg">
<rect x="0.1" y="0.1" width="33.8" height="34.8" rx="16.9" fill="white"/>
<rect x="0.1" y="0.1" width="33.8" height="34.8" rx="16.9" stroke="black" stroke-width="0.2"/>
<path d="M17.5484 2.12109C9.08113 2.12109 2.19354 8.78155 2.19354 16.9696C2.19354 25.1576 9.08113 31.8181 17.5484 31.8181C26.0156 31.8181 32.9032 25.1576 32.9032 16.9696C32.9032 8.78155 26.0156 2.12109 17.5484 2.12109ZM17.5484 4.24231C24.8302 4.24231 30.7097 9.92794 30.7097 16.9696C30.7097 24.0112 24.8302 29.6969 17.5484 29.6969C10.2666 29.6969 4.38709 24.0112 4.38709 16.9696C4.38709 9.92794 10.2666 4.24231 17.5484 4.24231Z" fill="#20224D"/>
<path d="M9.00982 19.1964C8.45008 19.4182 8.18172 20.0364 8.41003 20.5781C9.92505 24.1654 13.5413 26.515 17.5484 26.515C21.5552 26.515 25.1715 24.1671 26.6867 20.5802C26.9162 20.0373 26.6466 19.4174 26.0848 19.1964C25.5246 18.9757 24.8854 19.2352 24.656 19.7765C23.4753 22.5714 20.6705 24.3938 17.5484 24.3938C14.426 24.3938 11.6213 22.5717 10.4408 19.7765C10.1763 19.1084 9.51624 19.0017 9.00982 19.1964ZM13.1613 9.57227C11.3571 9.57227 9.87096 11.0094 9.87096 12.7541C9.87096 13.0354 9.98652 13.3051 10.1922 13.504C10.3979 13.7029 10.6769 13.8147 10.9677 13.8147C11.2586 13.8147 11.5376 13.7029 11.7433 13.504C11.949 13.3051 12.0645 13.0354 12.0645 12.7541C12.0645 12.1558 12.5426 11.6935 13.1613 11.6935C13.78 11.6935 14.2581 12.1558 14.2581 12.7541C14.2581 13.0354 14.3736 13.3051 14.5793 13.504C14.785 13.7029 15.064 13.8147 15.3548 13.8147C15.6457 13.8147 15.9247 13.7029 16.1304 13.504C16.3361 13.3051 16.4516 13.0354 16.4516 12.7541C16.4516 11.0094 14.9655 9.57227 13.1613 9.57227ZM21.9355 9.57227C20.1313 9.57227 18.6452 11.0094 18.6452 12.7541C18.6452 13.0354 18.7607 13.3051 18.9664 13.504C19.1721 13.7029 19.451 13.8147 19.7419 13.8147C20.0328 13.8147 20.3118 13.7029 20.5175 13.504C20.7232 13.3051 20.8387 13.0354 20.8387 12.7541C20.8387 12.1558 21.3168 11.6935 21.9355 11.6935C22.5542 11.6935 23.0323 12.1558 23.0323 12.7541C23.0323 13.0354 23.1478 13.3051 23.3535 13.504C23.5592 13.7029 23.8381 13.8147 24.129 13.8147C24.4199 13.8147 24.6989 13.7029 24.9046 13.504C25.1103 13.3051 25.2258 13.0354 25.2258 12.7541C25.2258 11.0094 23.7397 9.57227 21.9355 9.57227Z" fill="#20224D"/>
</svg>
