<svg width="26" height="26" viewBox="0 0 26 26" fill="none" xmlns="http://www.w3.org/2000/svg">
<path d="M12.8936 0.418973C5.78356 0.478362 0.047722 6.23985 0.106389 13.2633C0.165056 20.2868 5.99634 25.9517 13.1064 25.8923C20.2164 25.8329 25.9522 20.0714 25.8936 13.0479C25.8349 6.02445 20.0036 0.359583 12.8936 0.418973ZM12.9088 2.2385C19.0233 2.18742 24.0012 7.02318 24.0516 13.0633C24.1021 19.1035 19.2057 24.0217 13.0912 24.0728C6.9766 24.1239 1.99878 19.2881 1.94833 13.248C1.89788 7.20781 6.79422 2.28957 12.9088 2.2385Z" fill="#A4A4A4"/>
<path d="M5.63797 14.7543C5.15577 14.9547 4.92837 15.504 5.12973 15.982C6.46585 19.1475 9.60913 21.2018 13.0729 21.1729C16.5364 21.1439 19.645 19.0389 20.9282 15.8519C21.1226 15.3696 20.8849 14.8226 20.3977 14.631C19.9118 14.4396 19.3612 14.674 19.1669 15.1549C18.167 17.6382 15.756 19.2721 13.0572 19.2946C10.3582 19.3172 7.9203 17.7241 6.87918 15.2575C6.64566 14.668 6.07429 14.5782 5.63797 14.7543ZM9.15534 6.20264C7.59578 6.21567 6.3218 7.49888 6.3347 9.04372C6.33678 9.29279 6.43866 9.53082 6.61793 9.70546C6.79719 9.88009 7.03916 9.97701 7.2906 9.97491C7.54204 9.97281 7.78236 9.87186 7.95868 9.69426C8.13501 9.51665 8.2329 9.27695 8.23082 9.02789C8.22639 8.49811 8.6362 8.08533 9.17103 8.08086C9.70586 8.07639 10.1225 8.48227 10.1269 9.01205C10.129 9.26112 10.2309 9.49915 10.4102 9.67378C10.5894 9.84841 10.8314 9.94534 11.0828 9.94324C11.3343 9.94114 11.5746 9.84018 11.7509 9.66258C11.9272 9.48498 12.0251 9.24528 12.023 8.99621C12.0101 7.45137 10.7149 6.18961 9.15534 6.20264ZM16.7398 6.13929C15.1802 6.15231 13.9063 7.43553 13.9192 8.98037C13.9212 9.22944 14.0231 9.46747 14.2024 9.6421C14.3817 9.81674 14.6236 9.91366 14.8751 9.91156C15.1265 9.90946 15.3668 9.80851 15.5431 9.6309C15.7195 9.4533 15.8174 9.2136 15.8153 8.96453C15.8109 8.43475 16.2207 8.02197 16.7555 8.01751C17.2903 8.01304 17.707 8.41892 17.7114 8.9487C17.7135 9.19776 17.8154 9.43579 17.9946 9.61043C18.1739 9.78506 18.4159 9.88199 18.6673 9.87989C18.9187 9.87778 19.1591 9.77683 19.3354 9.59923C19.5117 9.42163 19.6096 9.18192 19.6075 8.93286C19.5946 7.38801 18.2994 6.12626 16.7398 6.13929Z" fill="#A4A4A4"/>
</svg>
