<svg width="81" height="82" viewBox="0 0 81 82" fill="none" xmlns="http://www.w3.org/2000/svg">
<path d="M40.5 0C32.63 0.0151243 24.9342 2.3448 18.3499 6.70526C11.7657 11.0657 6.57715 17.2688 3.41638 24.5588C0.255605 31.8489 -0.74101 39.9114 0.547921 47.7642C1.83685 55.617 5.3557 62.9212 10.6759 68.7871C14.4756 72.9531 19.0872 76.2779 24.2202 78.5519C29.3532 80.826 34.8962 82 40.5 82C46.1038 82 51.6468 80.826 56.7798 78.5519C61.9128 76.2779 66.5244 72.9531 70.3242 68.7871C75.6443 62.9212 79.1632 55.617 80.4521 47.7642C81.741 39.9114 80.7444 31.8489 77.5836 24.5588C74.4229 17.2688 69.2344 11.0657 62.6501 6.70526C56.0658 2.3448 48.37 0.0151243 40.5 0ZM40.5 73.8764C32.0943 73.8634 24.0213 70.5531 17.9797 64.6418C19.814 60.1252 22.9343 56.2622 26.9442 53.5435C30.9541 50.8248 35.6726 49.3732 40.5 49.3732C45.3274 49.3732 50.0459 50.8248 54.0558 53.5435C58.0657 56.2622 61.186 60.1252 63.0203 64.6418C56.9787 70.5531 48.9057 73.8634 40.5 73.8764ZM32.3846 32.8339C32.3846 31.2105 32.8605 29.6234 33.7523 28.2736C34.644 26.9237 35.9115 25.8716 37.3944 25.2503C38.8773 24.629 40.509 24.4665 42.0832 24.7832C43.6575 25.0999 45.1035 25.8817 46.2385 27.0297C47.3734 28.1776 48.1463 29.6403 48.4595 31.2325C48.7726 32.8248 48.6119 34.4753 47.9977 35.9752C47.3834 37.4751 46.3433 38.7571 45.0087 39.659C43.6741 40.561 42.1051 41.0424 40.5 41.0424C38.3477 41.0424 36.2835 40.1776 34.7615 38.6382C33.2396 37.0988 32.3846 35.011 32.3846 32.8339ZM68.5388 57.4594C64.9133 51.1871 59.3335 46.3083 52.6731 43.5871C54.7392 41.2175 56.0854 38.2953 56.5501 35.171C57.0149 32.0468 56.5785 28.8533 55.2934 25.9737C54.0082 23.0941 51.9289 20.6507 49.3048 18.9368C46.6808 17.2229 43.6236 16.3113 40.5 16.3113C37.3764 16.3113 34.3192 17.2229 31.6952 18.9368C29.0711 20.6507 26.9918 23.0941 25.7066 25.9737C24.4215 28.8533 23.9851 32.0468 24.4499 35.171C24.9146 38.2953 26.2608 41.2175 28.3269 43.5871C21.6666 46.3083 16.0867 51.1871 12.4612 57.4594C9.57193 52.4814 8.04532 46.8149 8.03834 41.0424C8.03834 32.3343 11.4584 23.9829 17.5461 17.8253C23.6339 11.6678 31.8906 8.20848 40.5 8.20848C49.1094 8.20848 57.3661 11.6678 63.4539 17.8253C69.5416 23.9829 72.9617 32.3343 72.9617 41.0424C72.9547 46.8149 71.4281 52.4814 68.5388 57.4594Z" fill="#A4A4A4"/>
</svg>
