<svg width="95" height="94" viewBox="0 0 95 94" fill="none" xmlns="http://www.w3.org/2000/svg">
<path d="M89.8015 52.0133C89.4461 51.8093 89.1603 51.5129 88.9783 51.1594C88.7962 50.8058 88.7255 50.4102 88.7747 50.0198C88.8575 49.0288 88.9031 48.0183 88.9031 47C88.9031 45.9817 88.8575 44.9712 88.7747 43.9724C88.7261 43.5831 88.7971 43.1888 88.9792 42.8366C89.1613 42.4845 89.4468 42.1894 89.8015 41.9867C92.1877 40.6801 93.9288 38.5317 94.6429 36.0126C95.357 33.4934 94.9858 30.8092 93.6107 28.5486L87.4415 18.4475C86.0518 16.1931 83.7738 14.552 81.107 13.8839C78.4402 13.2158 75.6022 13.5752 73.2151 14.8833C72.8766 15.0725 72.4876 15.1653 72.0947 15.1507C71.7019 15.1361 71.3218 15.0147 71 14.8011C69.172 13.6125 67.246 12.5647 65.2407 11.6678C64.8774 11.5043 64.5723 11.2443 64.3628 10.9194C64.1532 10.5946 64.0482 10.219 64.0607 9.83867C64.0574 7.23025 62.9606 4.72955 61.0108 2.88511C59.061 1.04068 56.4174 0.00310959 53.66 0L41.3382 0C38.575 0.00518918 35.9271 1.04826 33.9767 2.89987C32.0263 4.75148 30.9331 7.26002 30.9375 9.87392C30.9384 10.2439 30.8284 10.6066 30.6202 10.9199C30.4121 11.2333 30.1144 11.4844 29.7617 11.6443C27.7545 12.5403 25.8271 13.5881 23.9982 14.7776C23.6714 14.9915 23.2864 15.1119 22.8892 15.1244C22.492 15.1369 22.0994 15.041 21.7583 14.8481C19.3695 13.5449 16.5316 13.192 13.868 13.8669C11.2044 14.5418 8.93289 16.1893 7.55258 18.4475L1.38754 28.5486C0.0124592 30.8092 -0.358745 33.4934 0.355332 36.0126C1.06941 38.5317 2.81048 40.6801 5.1967 41.9867C5.55208 42.1907 5.83788 42.4871 6.01996 42.8406C6.20204 43.1942 6.27271 43.5898 6.22352 43.9803C6.14071 44.9712 6.09517 45.9817 6.09517 47C6.09517 48.0183 6.14071 49.0288 6.22352 50.0276C6.27209 50.4169 6.20108 50.8112 6.01898 51.1634C5.83689 51.5155 5.55141 51.8106 5.1967 52.0133C2.81048 53.3199 1.06941 55.4683 0.355332 57.9874C-0.358745 60.5066 0.0124592 63.1908 1.38754 65.4514L7.55672 75.5525C8.94221 77.811 11.2186 79.4569 13.8861 80.1289C16.5535 80.8008 19.3938 80.4438 21.7831 79.1363C22.1213 78.9462 22.5105 78.8528 22.9035 78.8674C23.2966 78.882 23.6768 79.0039 23.9982 79.2185C25.8262 80.4071 27.7522 81.4549 29.7575 82.3518C30.1175 82.5139 30.4204 82.7709 30.6297 83.0919C30.839 83.4129 30.9459 83.7843 30.9375 84.1613C30.9408 86.7698 32.0377 89.2705 33.9874 91.1149C35.9372 92.9593 38.5808 93.9969 41.3382 94H53.66C56.4232 93.9948 59.0711 92.9517 61.0215 91.1001C62.9719 89.2485 64.0651 86.74 64.0607 84.1261C64.0599 83.7561 64.1699 83.3934 64.378 83.08C64.5861 82.7667 64.8838 82.5156 65.2366 82.3558C67.2437 81.4597 69.1711 80.4119 71 79.2224C71.3268 79.0085 71.7118 78.8881 72.109 78.8756C72.5062 78.8631 72.8988 78.959 73.2399 79.1519C75.6294 80.452 78.4662 80.8031 81.1289 80.1285C83.7915 79.4538 86.063 77.8083 87.4456 75.5525L93.6107 65.4553C94.9871 63.1944 95.359 60.5092 94.6449 57.9891C93.9307 55.469 92.1889 53.3199 89.8015 52.0133ZM80.6223 47C80.6223 47.8029 80.585 48.598 80.5188 49.3813C80.354 51.2471 80.7491 53.1191 81.6588 54.7819C82.5685 56.4448 83.9557 57.831 85.6611 58.7813C85.9024 58.9131 86.1138 59.0886 86.2834 59.2978C86.4529 59.507 86.5771 59.7457 86.6491 60.0003C86.721 60.255 86.7391 60.5205 86.7024 60.7818C86.6658 61.0431 86.575 61.2949 86.4354 61.523L80.2786 71.6202C79.9912 72.0817 79.5219 72.4164 78.9739 72.5508C78.4258 72.6852 77.8437 72.6083 77.3555 72.3369C75.657 71.418 73.7194 70.97 71.7644 71.0441C69.8094 71.1182 67.9159 71.7115 66.3006 72.756C64.8379 73.7079 63.2969 74.5475 61.6924 75.2666C59.9199 76.0702 58.4241 77.332 57.3778 78.906C56.3315 80.48 55.7775 82.302 55.7799 84.1613C55.7799 84.6932 55.5566 85.2032 55.159 85.5793C54.7614 85.9554 54.2222 86.1667 53.66 86.1667H41.3382C41.057 86.1657 40.7787 86.1119 40.5196 86.0086C40.2604 85.9052 40.0255 85.7543 39.8284 85.5646C39.6313 85.3748 39.4759 85.15 39.3711 84.9031C39.2664 84.6562 39.2145 84.3921 39.2183 84.1261C39.2134 82.2738 38.6554 80.4605 37.6086 78.8952C36.5619 77.3298 35.0689 76.0761 33.3017 75.2783C31.699 74.5583 30.1595 73.7188 28.6976 72.7678C27.0771 71.7224 25.1775 71.131 23.2174 71.0617C21.2573 70.9924 19.3164 71.448 17.6179 72.3761C17.1307 72.6418 16.552 72.714 16.0087 72.5767C15.4654 72.4394 15.0018 72.1038 14.7196 71.6437L8.5794 61.5387C8.29848 61.0778 8.22224 60.5304 8.36738 60.0164C8.51252 59.5025 8.86721 59.0639 9.35365 58.797C11.059 57.8467 12.4463 56.4604 13.356 54.7976C14.2657 53.1348 14.6608 51.2628 14.496 49.397C14.4132 48.598 14.376 47.8029 14.376 47C14.376 46.1971 14.4132 45.402 14.4795 44.6187C14.6443 42.7529 14.2491 40.8809 13.3394 39.2181C12.4297 37.5552 11.0425 36.169 9.33709 35.2187C9.09582 35.0869 8.88437 34.9114 8.71486 34.7022C8.54534 34.493 8.42107 34.2543 8.34916 33.9997C8.27725 33.745 8.25911 33.4795 8.29578 33.2182C8.33244 32.9569 8.42319 32.7051 8.56284 32.477L14.7196 22.3681C14.8607 22.1384 15.0486 21.9375 15.2723 21.7769C15.496 21.6164 15.7512 21.4994 16.0231 21.4327C16.2949 21.3661 16.578 21.3511 16.856 21.3886C17.1341 21.4261 17.4014 21.5154 17.6427 21.6513C19.3409 22.5711 21.2786 23.0196 23.2339 22.9455C25.1891 22.8714 27.0827 22.2776 28.6976 21.2323C30.1603 20.2803 31.7013 19.4408 33.3058 18.7217C35.0764 17.9189 36.571 16.659 37.6171 15.0872C38.6633 13.5155 39.2183 11.696 39.2183 9.83867C39.2183 9.30682 39.4417 8.79675 39.8392 8.42068C40.2368 8.04461 40.776 7.83333 41.3382 7.83333H53.66C53.9412 7.83434 54.2195 7.88807 54.4786 7.99142C54.7378 8.09476 54.9727 8.24567 55.1698 8.43542C55.3669 8.62517 55.5224 8.84999 55.6271 9.0969C55.7318 9.34381 55.7837 9.6079 55.7799 9.87392C55.7848 11.7262 56.3428 13.5394 57.3896 15.1048C58.4364 16.6702 59.9293 17.9239 61.6965 18.7217C63.2992 19.4417 64.8388 20.2812 66.3006 21.2323C67.9215 22.2768 69.821 22.8676 71.7809 22.9369C73.7408 23.0062 75.6816 22.5511 77.3803 21.6239C77.8675 21.3582 78.4462 21.2861 78.9895 21.4234C79.5328 21.5607 79.9964 21.8962 80.2786 22.3563L86.4188 32.4613C86.6997 32.9222 86.776 33.4696 86.6308 33.9836C86.4857 34.4975 86.131 34.9361 85.6446 35.203C83.9392 36.1533 82.5519 37.5396 81.6422 39.2024C80.7326 40.8652 80.3374 42.7372 80.5022 44.603C80.585 45.402 80.6223 46.2167 80.6223 47Z" fill="black"/>
<path d="M47.499 27.4167C43.4046 27.4167 39.4021 28.5652 35.9976 30.7171C32.5932 32.8689 29.9398 35.9274 28.3729 39.5058C26.806 43.0842 26.3961 47.0217 27.1949 50.8205C27.9936 54.6193 29.9653 58.1088 32.8605 60.8475C35.7558 63.5863 39.4445 65.4514 43.4603 66.2071C47.4761 66.9627 51.6385 66.5749 55.4213 65.0927C59.2041 63.6104 62.4373 61.1004 64.7121 57.8799C66.9869 54.6595 68.201 50.8732 68.201 47C68.1944 41.8081 66.0112 36.8306 62.1303 33.1594C58.2493 29.4881 52.9875 27.4229 47.499 27.4167ZM47.499 58.75C45.0424 58.75 42.6409 58.0609 40.5982 56.7698C38.5555 55.4787 36.9635 53.6436 36.0234 51.4966C35.0832 49.3495 34.8372 46.987 35.3165 44.7077C35.7958 42.4284 36.9788 40.3348 38.7159 38.6915C40.4531 37.0482 42.6663 35.9292 45.0758 35.4758C47.4853 35.0224 49.9827 35.2551 52.2524 36.1444C54.5221 37.0338 56.462 38.5398 57.8269 40.4721C59.1917 42.4043 59.9202 44.6761 59.9202 47C59.9202 50.1163 58.6116 53.105 56.2821 55.3085C53.9527 57.5121 50.7933 58.75 47.499 58.75Z" fill="black"/>
</svg>
